<svg width="181" height="158" viewBox="0 0 181 158" fill="none" xmlns="http://www.w3.org/2000/svg">
<path d="M179.924 151L163.416 92.874H19.0816L0.271577 150.798C-0.866423 154.314 1.71357 157.919 5.36957 157.919H71.2876L73.9566 155.25H105.088L107.757 157.919H174.751C178.318 157.919 180.898 154.453 179.912 150.987L179.924 151Z" fill="#E0E0E0"/>
<g opacity="0.3">
<path d="M179.924 151L163.416 92.874H19.0816L0.271577 150.798C-0.866423 154.314 1.71357 157.919 5.36957 157.919H71.2876L73.9566 155.25H105.088L107.757 157.919H174.751C178.318 157.919 180.898 154.453 179.912 150.987L179.924 151Z" fill="black"/>
</g>
<path d="M19.0186 91.394V6.12199C19.0186 2.74499 21.7386 0 25.1026 0H157.736C161.101 0 163.821 2.74499 163.821 6.12199V91.394H19.0186Z" fill="#E0E0E0"/>
<path d="M155.068 8.42395H27.7726V84.2599H155.068V8.42395Z" fill="white"/>
<path d="M155.067 84.26C155.067 84.26 155.055 83.779 155.042 82.881C155.042 81.957 155.029 80.629 155.017 78.896C155.004 75.392 154.979 70.269 154.953 63.704C154.916 50.561 154.878 31.637 154.814 8.43703L155.067 8.69003C120.736 8.71503 76.2466 8.74002 27.7846 8.76602L28.1136 8.43703C28.1136 35.292 28.1006 60.933 28.0886 84.272L27.7846 83.969C65.0766 84.032 96.8526 84.083 119.332 84.12C130.577 84.158 139.495 84.184 145.618 84.209C148.667 84.222 151.019 84.234 152.626 84.247C153.41 84.247 154.017 84.26 154.435 84.26C154.84 84.26 155.067 84.272 155.067 84.272C155.067 84.272 154.878 84.272 154.473 84.285C154.055 84.285 153.461 84.285 152.689 84.298C151.095 84.298 148.768 84.323 145.744 84.336C139.635 84.361 130.742 84.386 119.521 84.424C96.9916 84.462 65.1396 84.513 27.7726 84.576H27.4686V84.272C27.4686 60.933 27.4556 35.305 27.4436 8.43703V8.10803H27.7726C76.2336 8.13303 120.723 8.15902 155.055 8.18402H155.308V8.43703C155.257 31.712 155.206 50.687 155.169 63.868C155.143 70.421 155.118 75.519 155.105 79.01C155.105 80.73 155.08 82.033 155.08 82.944C155.08 83.83 155.055 84.272 155.055 84.272L155.067 84.26Z" fill="#263238"/>
<path d="M93.7666 4.427C93.7666 5.705 92.7166 6.729 91.4256 6.729C90.1356 6.729 89.0856 5.692 89.0856 4.427C89.0856 3.162 90.1356 2.125 91.4256 2.125C92.7166 2.125 93.7666 3.149 93.7666 4.427Z" fill="#263238"/>
<path d="M179.924 148.862L163.416 90.736H19.0816L0.271577 148.66C-0.866423 152.176 1.71357 155.782 5.36957 155.782H71.2876L73.9566 153.112H105.088L107.757 155.782H174.751C178.318 155.782 180.898 152.315 179.912 148.849L179.924 148.862Z" fill="#E0E0E0"/>
<path d="M153.182 94.468L27.3926 94.038C26.0766 94.038 24.9136 94.746 24.5466 95.784L14.4646 124.385C13.9206 125.941 15.3246 127.497 17.2976 127.497H162.86C164.82 127.497 166.224 125.953 165.693 124.398L156.003 96.214C155.649 95.177 154.498 94.456 153.182 94.443V94.468Z" fill="#EBEBEB"/>
<g opacity="0.1">
<path d="M114.108 149.356H64.4566C62.4206 149.356 60.9276 147.256 61.4466 145.093L64.2546 133.354C64.6086 131.861 65.8486 130.811 67.2656 130.811H111.616C113.058 130.811 114.323 131.899 114.652 133.442L117.144 145.181C117.599 147.319 116.119 149.356 114.108 149.356Z" fill="black"/>
</g>
<path d="M113.943 103.513L112.653 97.529C112.564 97.125 112.197 96.821 111.78 96.821H104.038C103.494 96.821 103.077 97.302 103.153 97.846L104.013 103.842C104.076 104.284 104.456 104.613 104.898 104.613H113.083C113.652 104.613 114.07 104.082 113.956 103.525L113.943 103.513Z" fill="#263238"/>
<path d="M90.6036 103.652L90.0476 97.631C90.0096 97.175 89.6175 96.821 89.1615 96.821H81.2425C80.7365 96.821 80.3326 97.239 80.3446 97.744L80.5726 103.778C80.5856 104.259 80.9896 104.639 81.4706 104.639H89.7186C90.2366 104.639 90.6546 104.171 90.6036 103.652Z" fill="#263238"/>
<path d="M102.887 103.589L102.027 97.593C101.964 97.15 101.584 96.821 101.141 96.821H92.0336C91.5016 96.821 91.0976 97.276 91.1476 97.795L91.7046 103.804C91.7426 104.259 92.1346 104.613 92.5896 104.613H102.002C102.546 104.601 102.963 104.12 102.887 103.576V103.589Z" fill="#263238"/>
<path d="M45.1276 103.753L46.3545 98.288C46.5185 97.542 45.9495 96.821 45.1775 96.821H37.6766C37.1456 96.821 36.6646 97.175 36.5256 97.694L34.9566 103.171C34.7416 103.943 35.3106 104.702 36.1076 104.702H43.9506C44.5076 104.702 45.0006 104.297 45.1276 103.753Z" fill="#263238"/>
<path d="M154.396 103.323L152.119 97.39C151.993 97.049 151.651 96.821 151.285 96.821H136.56C135.94 96.821 135.51 97.441 135.725 98.023L137.939 103.968C138.066 104.322 138.407 104.55 138.774 104.55L153.562 104.525C154.181 104.525 154.624 103.892 154.396 103.31V103.323Z" fill="#263238"/>
<path d="M78.3836 96.821H69.8196C69.3396 96.821 68.9476 97.201 68.9216 97.669L68.6306 103.715C68.6056 104.221 69.0106 104.651 69.5286 104.651H78.5986C79.1046 104.639 79.5096 104.221 79.4846 103.715L79.2566 97.681C79.2436 97.201 78.8396 96.821 78.3586 96.821H78.3836Z" fill="#263238"/>
<path d="M34.0596 96.821H28.0886C27.5826 96.821 27.1266 97.137 26.9626 97.618L24.9896 103.108C24.7106 103.892 25.2926 104.715 26.1146 104.715H32.4906C33.0216 104.715 33.5026 104.348 33.6416 103.829L35.2106 98.3521C35.4256 97.5801 34.8556 96.821 34.0596 96.821Z" fill="#263238"/>
<path d="M56.2086 103.892L57.0056 97.82C57.0816 97.289 56.6646 96.808 56.1206 96.808H48.5056C48.0876 96.808 47.7206 97.099 47.6326 97.504L46.2666 103.576C46.1396 104.133 46.5696 104.664 47.1386 104.664H55.3236C55.7666 104.664 56.1456 104.322 56.2086 103.88V103.892Z" fill="#263238"/>
<path d="M58.1066 97.605L57.3096 103.665C57.2336 104.196 57.6516 104.677 58.1946 104.677H66.6706C67.1516 104.677 67.5436 104.284 67.5556 103.816L67.8466 97.77C67.8726 97.264 67.4676 96.834 66.9486 96.834H58.9796C58.5366 96.834 58.1576 97.163 58.0936 97.605H58.1066Z" fill="#263238"/>
<path d="M125.58 103.424L123.809 97.453C123.695 97.074 123.354 96.808 122.949 96.808H114.689C114.12 96.808 113.702 97.34 113.816 97.884L115.106 103.867C115.195 104.284 115.562 104.575 115.979 104.575H124.707C125.302 104.563 125.732 103.993 125.568 103.412L125.58 103.424Z" fill="#263238"/>
<path d="M136.573 103.361L134.36 97.403C134.233 97.049 133.892 96.821 133.525 96.821H125.948C125.353 96.821 124.923 97.39 125.087 97.972L126.858 103.943C126.972 104.322 127.314 104.588 127.719 104.588H135.751C136.371 104.588 136.801 103.956 136.586 103.374L136.573 103.361Z" fill="#263238"/>
<path d="M78.7256 106.005H69.3906C68.9096 106.005 68.5176 106.371 68.4926 106.852L68.1886 113.089C68.1636 113.594 68.5676 114.025 69.0866 114.025H78.9536C79.4596 114.012 79.8646 113.594 79.8386 113.089L79.6116 106.865C79.5986 106.384 79.1936 106.005 78.7136 106.005H78.7256Z" fill="#263238"/>
<path d="M140.065 112.734L137.775 106.599C137.649 106.245 137.307 106.017 136.94 106.017H128.667C128.073 106.017 127.643 106.587 127.807 107.168L129.629 113.316C129.743 113.696 130.084 113.961 130.489 113.961H139.23C139.85 113.961 140.28 113.329 140.065 112.747V112.734Z" fill="#263238"/>
<path d="M128.363 112.798L126.541 106.637C126.428 106.258 126.086 105.992 125.681 105.992H116.687C116.118 105.992 115.688 106.511 115.814 107.067L117.143 113.241C117.231 113.658 117.598 113.949 118.016 113.949H127.503C128.097 113.936 128.528 113.367 128.363 112.785V112.798Z" fill="#263238"/>
<path d="M56.9806 114.037H66.2276C66.7076 114.025 67.0996 113.645 67.1126 113.177L67.4166 106.928C67.4416 106.422 67.0366 105.992 66.5306 105.992H57.8026C57.3596 105.992 56.9806 106.321 56.9166 106.764L56.0946 113.025C56.0186 113.557 56.4366 114.037 56.9806 114.037Z" fill="#263238"/>
<path d="M81.8116 114.012H90.5656C91.0836 114.012 91.5016 113.544 91.4506 113.025L90.8816 106.814C90.8436 106.359 90.4516 106.005 89.9956 106.005H81.5836C81.0776 106.005 80.6726 106.422 80.6856 106.928L80.9136 113.152C80.9256 113.632 81.3306 114.012 81.8116 114.012Z" fill="#263238"/>
<path d="M91.9826 106.979L92.5516 113.177C92.5896 113.633 92.9816 113.987 93.4376 113.987H103.33C103.874 113.974 104.291 113.494 104.215 112.95L103.33 106.764C103.267 106.321 102.887 105.992 102.444 105.992H92.8686C92.3366 105.992 91.9316 106.448 91.9826 106.966V106.979Z" fill="#263238"/>
<path d="M115.967 112.886L114.639 106.713C114.55 106.308 114.183 106.005 113.766 106.005H105.354C104.81 106.005 104.392 106.485 104.468 107.017L105.354 113.202C105.417 113.645 105.796 113.974 106.239 113.974H115.107C115.676 113.974 116.093 113.443 115.98 112.886H115.967Z" fill="#263238"/>
<path d="M43.5086 105.992H24.8626C24.4956 105.992 24.1666 106.22 24.0276 106.561L21.5986 112.874C21.3706 113.456 21.8016 114.088 22.4336 114.088L42.1036 114.063C42.5216 114.063 42.8886 113.772 42.9766 113.367L44.3806 107.093C44.5076 106.536 44.0776 106.005 43.5086 106.005V105.992Z" fill="#263238"/>
<path d="M45.0386 114.063H54.0956C54.5386 114.063 54.9176 113.721 54.9816 113.278L55.8036 107.017C55.8796 106.485 55.4616 106.005 54.9176 106.005H46.4556C46.0376 106.005 45.6706 106.296 45.5826 106.7L44.1786 112.975C44.0516 113.531 44.4816 114.063 45.0516 114.063H45.0386Z" fill="#263238"/>
<path d="M151.197 113.923H157.028C157.661 113.923 158.091 113.278 157.85 112.684L155.396 106.574C155.257 106.232 154.928 106.017 154.574 106.017H149.211C148.603 106.017 148.173 106.612 148.363 107.181L150.349 113.304C150.463 113.67 150.817 113.923 151.197 113.923Z" fill="#263238"/>
<path d="M149.033 112.76L147.048 106.637C146.934 106.27 146.579 106.017 146.2 106.017H139.989C139.369 106.017 138.939 106.637 139.154 107.219L141.431 113.354C141.558 113.708 141.899 113.936 142.266 113.936H148.173C148.781 113.936 149.211 113.342 149.021 112.76H149.033Z" fill="#263238"/>
<path d="M56.1206 124.562H65.2916C66.0126 124.575 66.6066 124.018 66.6326 123.297L66.9486 116.782C66.9866 116.011 66.3796 115.378 65.6076 115.378H56.9806C56.3096 115.378 55.7406 115.884 55.6526 116.555L54.8046 123.057C54.7036 123.866 55.3236 124.575 56.1326 124.575L56.1206 124.562Z" fill="#263238"/>
<path d="M158.191 115.366H144.112C143.176 115.366 142.531 116.302 142.847 117.175L145.327 123.816C145.516 124.347 146.022 124.689 146.579 124.689L160.785 124.714C161.733 124.714 162.378 123.765 162.037 122.88L159.431 116.213C159.229 115.695 158.735 115.353 158.179 115.353L158.191 115.366Z" fill="#263238"/>
<path d="M43.3946 116.415L41.9396 122.892C41.7496 123.727 42.3946 124.524 43.2546 124.537H52.3246C52.9956 124.549 53.5776 124.056 53.6656 123.385L54.5136 116.896C54.6146 116.087 53.9946 115.378 53.1856 115.378H44.7226C44.0896 115.378 43.5456 115.821 43.4066 116.428L43.3946 116.415Z" fill="#263238"/>
<path d="M31.0866 116.34L29.1766 123.031C28.9616 123.778 29.5176 124.511 30.2896 124.511H39.5496C40.0936 124.524 40.5616 124.145 40.6876 123.626L42.2186 116.808C42.3826 116.074 41.8266 115.391 41.0676 115.391L32.1865 115.505C31.6805 115.505 31.2256 115.859 31.0866 116.34Z" fill="#263238"/>
<path d="M117.953 116.997L119.382 123.601C119.522 124.22 120.065 124.663 120.698 124.663H130.084C130.982 124.676 131.627 123.816 131.374 122.955L129.414 116.34C129.249 115.77 128.718 115.378 128.123 115.378H119.269C118.408 115.378 117.776 116.175 117.953 117.01V116.997Z" fill="#263238"/>
<path d="M68.0236 116.643L67.7076 123.171C67.6696 123.942 68.2766 124.575 69.0486 124.575L116.84 124.651C117.7 124.651 118.332 123.866 118.155 123.019L116.726 116.416C116.587 115.796 116.043 115.353 115.41 115.353H69.3646C68.6436 115.353 68.0616 115.922 68.0236 116.631V116.643Z" fill="#263238"/>
<path d="M20.6376 116.061L18.0566 123.057C17.8036 123.752 18.3096 124.486 19.0566 124.486H26.8236C27.3036 124.499 27.7216 124.182 27.8476 123.727L29.8465 116.719C30.0365 116.036 29.5306 115.365 28.8216 115.365H21.6246C21.1816 115.365 20.7766 115.644 20.6246 116.061H20.6376Z" fill="#263238"/>
<path d="M130.754 117.099L132.715 123.727C132.879 124.296 133.41 124.688 134.005 124.688H142.581C143.518 124.701 144.175 123.765 143.846 122.892L141.38 116.251C141.19 115.72 140.684 115.378 140.115 115.378H132.044C131.146 115.378 130.501 116.238 130.754 117.111V117.099Z" fill="#263238"/>
<path d="M163.935 90.951C163.935 91.129 131.577 91.28 91.6796 91.28C51.7816 91.28 19.4106 91.129 19.4106 90.951C19.4106 90.774 51.7566 90.623 91.6796 90.623C131.602 90.623 163.935 90.774 163.935 90.951Z" fill="#263238"/>
<path d="M64.2366 33.2178C65.327 32.3127 66.5199 31.572 67.7852 31.006L68.0015 27.1386L74.3278 26.0791L75.798 29.6692C77.1763 29.8025 78.5448 30.1115 79.8719 30.6051L82.7618 28.0234L87.9872 31.7468L86.4861 35.3165C87.3911 36.407 88.1319 37.5999 88.6971 38.8651L92.5652 39.0814L93.6248 45.4069L90.0347 46.8779C89.9005 48.2562 89.5923 49.6248 89.0987 50.951L91.6805 53.8418L87.9563 59.0671L84.3873 57.5652C83.2969 58.4702 82.104 59.211 80.8387 59.777L80.6225 63.6443L74.2969 64.7039L72.8259 61.1138C71.4476 60.9804 70.0791 60.6714 68.752 60.1779L65.8621 62.7596L60.6368 59.0362L62.1387 55.4673C61.2328 54.3768 60.4928 53.1831 59.9269 51.9178L56.0587 51.7024L55 45.376L58.5893 43.905C58.7234 42.5267 59.0316 41.159 59.5252 39.832L56.9434 36.9412L60.6677 31.7159L64.2472 33.2178H64.2366ZM68.8756 41.159C66.6639 44.2547 67.3843 48.5546 70.48 50.7559C73.5765 52.9676 77.8764 52.2472 80.0776 49.1515C82.2788 46.055 81.569 41.7551 78.4725 39.5539C75.3768 37.3527 71.0768 38.0625 68.8756 41.159Z" fill="#F5F5F5"/>
<path d="M99.0965 49.3361C99.8372 48.7295 100.639 48.2253 101.493 47.8342L101.647 45.2118L105.926 44.4913L106.924 46.9194C107.86 47.0015 108.786 47.217 109.68 47.5569L111.635 45.8078L115.173 48.3286L114.155 50.7453C114.772 51.4861 115.266 52.2886 115.657 53.1425L118.28 53.2864L119 57.5652L116.573 58.5629C116.491 59.4989 116.274 60.4251 115.934 61.3195L117.684 63.2743L115.164 66.8124L112.746 65.7943C112.005 66.4115 111.203 66.9051 110.35 67.2962L110.206 69.9194L105.926 70.6391L104.928 68.2118C103.992 68.1289 103.067 67.9134 102.172 67.5735L100.218 69.3226L96.6789 66.8026L97.697 64.3851C97.0798 63.6443 96.5862 62.8426 96.1959 61.9888L93.5727 61.844L92.8522 57.5652L95.2803 56.5675C95.3624 55.6315 95.578 54.7062 95.9179 53.8109L94.1688 51.8569L96.6895 48.318L99.1062 49.3361H99.0965ZM102.244 54.7159C100.752 56.8147 101.236 59.7152 103.334 61.2171C105.433 62.7084 108.333 62.2254 109.835 60.1266C111.337 58.0279 110.843 55.1274 108.745 53.6255C106.647 52.1342 103.745 52.618 102.244 54.7159Z" fill="#F5F5F5"/>
<path d="M97.0904 24.2894C97.7491 23.7446 98.4589 23.3022 99.22 22.9623L99.3534 20.6375L103.149 20L104.034 22.15C104.857 22.2321 105.68 22.4175 106.472 22.7159L108.2 21.1726L111.326 23.4047L110.432 25.5441C110.977 26.2027 111.419 26.9126 111.759 27.6737L114.084 27.8071L114.721 31.6029L112.571 32.4876C112.499 33.3105 112.304 34.1334 112.005 34.9254L113.549 36.6534L111.317 39.7808L109.177 38.8855C108.518 39.4311 107.809 39.8734 107.047 40.2125L106.914 42.5373L103.118 43.1749L102.234 41.0249C101.411 40.9428 100.588 40.7573 99.7958 40.4597L98.0678 42.0023L94.9404 39.7702L95.8357 37.6308C95.2901 36.9721 94.8477 36.2622 94.5087 35.5011L92.1838 35.3678L91.5463 31.572L93.6963 30.6873C93.7784 29.8644 93.9638 29.0414 94.2614 28.2494L92.7189 26.5215L94.951 23.3949L97.0904 24.2894ZM99.8779 29.052C98.5508 30.9036 98.9834 33.4853 100.845 34.8018C102.696 36.1289 105.278 35.6971 106.595 33.835C107.912 31.9729 107.49 29.4017 105.628 28.0852C103.776 26.7581 101.194 27.1899 99.8779 29.052Z" fill="#F5F5F5"/>
<path d="M65.3523 53.8279V56.3943H67.9161V53.8279V51.2649H65.3523V53.8279Z" fill="#5C5C5C"/>
<path d="M67.9194 38.439H65.3523V41.0053H67.9194V38.439Z" fill="#5C5C5C"/>
<path d="M83.7751 66.6814H81.2079V69.2477H83.7751V66.6814Z" fill="#5C5C5C"/>
<path d="M67.9161 43.5684V46.1347H65.3523V48.6978H67.9161V51.2649H70.4833H73.0471V53.8279H75.6142V51.2649H78.1822V48.6978V46.1347H75.6142V48.6978H73.0471H70.4833V46.1347V43.5684V41.0021H67.9161V43.5684Z" fill="#5C5C5C"/>
<path d="M73.048 38.439H70.4841V41.002H73.048H75.6151V38.439H73.048Z" fill="#5C5C5C"/>
<path d="M84.5972 59.0607H85.973V56.4935H84.5972H83.218V59.0607H84.5972Z" fill="#5C5C5C"/>
<path d="M78.1814 41.0021H75.6142V43.5684H78.1814V41.0021Z" fill="#5C5C5C"/>
<path d="M96.1431 51.2649H93.576V53.8312H96.1431V51.2649Z" fill="#5C5C5C"/>
<path d="M98.7102 23.046H96.1431V25.6123H98.7102V23.046Z" fill="#5C5C5C"/>
<path d="M83.3132 43.5683V41.002H85.8771V38.4389H83.3132V35.8718H80.7461V38.4389H78.1822V41.002H80.7461V43.5683V46.1346V48.6985V51.2648H83.3132V48.6985V46.1346H85.8771V43.5683H83.3132Z" fill="#5C5C5C"/>
<path d="M96.1431 69.2201H98.7102V66.6538H96.1431H93.576V69.2201H96.1431Z" fill="#5C5C5C"/>
<path d="M93.5792 23.046H91.0121V25.6123H93.5792V23.046Z" fill="#5C5C5C"/>
<path d="M92.9352 43.5683V41.002H90.3681V38.439H87.8042V41.002V43.5683H85.2371V46.1346H87.8042H90.3681V43.5683H92.9352Z" fill="#5C5C5C"/>
<path d="M107.417 38.439H104.85V41.0053H107.417V38.439Z" fill="#5C5C5C"/>
<path d="M80.8209 51.2649H78.2537V53.8312H80.8209V51.2649Z" fill="#5C5C5C"/>
<path d="M91.0121 35.8718V33.3055H93.576V30.7425H96.1431H98.7102V28.1754H96.1431V25.6123H93.576V28.1754H91.0121V30.7425H88.4442V33.3055H85.877V35.8718H88.4442H91.0121Z" fill="#5C5C5C"/>
<path d="M91.0121 53.828V51.2649H93.576V48.6986H91.0121H88.4442V51.2649H85.877V53.828H88.4442H91.0121Z" fill="#5C5C5C"/>
<path d="M98.7102 64.0875V61.5244H96.1423H93.5752V58.9573H91.0113V61.5244H88.4442V64.0875H85.877H83.3132V66.6538H85.877H88.4442H91.0113V64.0875H93.5752V66.6538H96.1423V64.0875H98.7102Z" fill="#5C5C5C"/>
<path d="M88.4442 25.6123V23.046H85.8771H83.3132V25.6123H80.7461V28.1754H83.3132H85.8771V25.6123H88.4442Z" fill="#5C5C5C"/>
<path d="M88.4442 28.1761H85.877V30.7425H88.4442V28.1761Z" fill="#5C5C5C"/>
<path d="M94.8592 38.439H92.2953V41.002V43.5683V46.1346H94.8592H97.4263V43.5683H94.8592V41.002H97.4263V38.439H99.9901V35.8718H97.4263V33.3055H94.8592V35.8718V38.439Z" fill="#5C5C5C"/>
<path d="M85.8803 30.7426H83.3132V33.3089H85.8803V30.7426Z" fill="#5C5C5C"/>
<path d="M93.576 56.3942V58.9613H96.1431H98.7102V56.3942H101.275H103.842V53.8279H101.275H98.7102H96.1431V56.3942H93.576Z" fill="#5C5C5C"/>
<path d="M107.417 46.1348H104.85V48.7019H107.417V46.1348Z" fill="#5C5C5C"/>
<path d="M98.7102 48.6986H96.1431V51.2649H98.7102V48.6986Z" fill="#5C5C5C"/>
<path d="M105.125 41.0021H102.558H99.991V43.5684H102.558V46.1347H105.125V43.5684V41.0021Z" fill="#5C5C5C"/>
<path d="M103.842 48.6986H101.275V51.2649H103.842V48.6986Z" fill="#5C5C5C"/>
<path d="M75.6151 64.1387H83.3173V53.8279H73.0032V56.3942H70.4841V58.9613H73.0032V61.5276H70.4841V64.0939H73.0032V64.1419H73.0512V66.6611H70.4841V71.7904H73.0512V69.2241H75.6183V64.1419L75.6151 64.1387ZM81.3421 55.8022V62.2156H74.9271V55.8022H81.3421Z" fill="#5C5C5C"/>
<path d="M108.972 53.8279H111.539V51.2649H108.972H106.405H103.841V53.8279H106.405H108.972Z" fill="#5C5C5C"/>
<path d="M108.972 43.5683H111.539V41.002V38.439H108.972V41.002V43.5683Z" fill="#5C5C5C"/>
<path d="M88.5402 56.4935H85.9722V59.0607V61.6237H88.5402V59.0607V56.4935Z" fill="#5C5C5C"/>
<path d="M114.107 53.8279H111.54V56.3942H114.107V53.8279Z" fill="#5C5C5C"/>
<path d="M114.104 48.6986V46.1348H111.54V48.6986V51.265H114.104V48.6986Z" fill="#5C5C5C"/>
<path d="M67.9161 66.6538H65.3523V69.2201V71.7872H67.9161V69.2201V66.6538Z" fill="#5C5C5C"/>
<path d="M114.104 35.8719V23.046H101.275V35.8719H114.104ZM103.198 33.9488V24.9691H112.181V33.9488H103.198Z" fill="#5C5C5C"/>
<path d="M110.256 26.8922H105.125V32.0224H110.256V26.8922Z" fill="#5C5C5C"/>
<path d="M114.104 58.9613H101.275V71.7872H114.104V58.9613ZM103.198 69.8641V60.8844H112.181V69.8641H103.198Z" fill="#5C5C5C"/>
<path d="M110.256 62.8075H105.125V67.9369H110.256V62.8075Z" fill="#5C5C5C"/>
<path d="M65.3181 23.046V35.8719H78.1481V23.046H65.3181ZM76.2241 24.9691V33.9488H67.242V24.9691H76.2241Z" fill="#5C5C5C"/>
<path d="M74.3002 26.8922H69.1684V32.0224H74.3002V26.8922Z" fill="#5C5C5C"/>
</svg>
